<svg id="Logo" xmlns="http://www.w3.org/2000/svg" width="149" height="36" viewBox="0 0 149 36">
  <metadata><?xpacket begin="﻿" id="W5M0MpCehiHzreSzNTczkc9d"?>
<x:xmpmeta xmlns:x="adobe:ns:meta/" x:xmptk="Adobe XMP Core 5.6-c142 79.160924, 2017/07/13-01:06:39        ">
   <rdf:RDF xmlns:rdf="http://www.w3.org/1999/02/22-rdf-syntax-ns#">
      <rdf:Description rdf:about=""/>
   </rdf:RDF>
</x:xmpmeta>
                                                                                                    
                                                                                                    
                                                                                                    
                                                                                                    
                                                                                                    
                                                                                                    
                                                                                                    
                                                                                                    
                                                                                                    
                                                                                                    
                                                                                                    
                                                                                                    
                                                                                                    
                                                                                                    
                                                                                                    
                                                                                                    
                                                                                                    
                                                                                                    
                                                                                                    
                                                                                                    
                           
<?xpacket end="w"?></metadata>
<defs>
    <style>
      .cls-1 {
        fill: #f18c16;
      }

      .cls-1, .cls-2, .cls-3 {
        fill-rule: evenodd;
      }

      .cls-2 {
        fill: #de8f26;
      }

      .cls-3 {
        fill: #fff;
      }
    </style>
  </defs>
  <path id="Y_copy" data-name="Y copy" class="cls-1" d="M79.943,60H73.877v0.228l10.4,15.441V86.688h5.1V75.666Z" transform="translate(-60 -60)"/>
  <path id="Y_copy_2" data-name="Y copy 2" class="cls-2" d="M90.165,74.531l9.989-14.305V60H94.01L86.692,71.215Z" transform="translate(-60 -60)"/>
  <path id="Text_copy" data-name="Text copy" class="cls-3" d="M110.585,74.542a6.658,6.658,0,0,0-1.894-1.028,12.163,12.163,0,0,0-2.2-.546c-0.76-.114-1.5-0.2-2.229-0.234a6.261,6.261,0,0,1-2.691-.628,1.572,1.572,0,0,1-.864-1.428,1.521,1.521,0,0,1,.9-1.377,5.5,5.5,0,0,1,2.582-.489,7.745,7.745,0,0,1,2.531.368,5.927,5.927,0,0,1,2.184,1.307l2.628-3.046a9.914,9.914,0,0,0-2.242-1.485,9.353,9.353,0,0,0-2.422-.774,15.771,15.771,0,0,0-2.756-.216,12.874,12.874,0,0,0-2.171.191,11.037,11.037,0,0,0-2.164.621A7.265,7.265,0,0,0,97.9,66.89a4.927,4.927,0,0,0-1.828,3.941,5.032,5.032,0,0,0,.477,2.215,4.753,4.753,0,0,0,1.262,1.6,7.112,7.112,0,0,0,1.816,1.072,11.711,11.711,0,0,0,2.126.641,17.765,17.765,0,0,0,2.2.3,11.48,11.48,0,0,1,2.183.291,2.546,2.546,0,0,1,1.224.635,1.438,1.438,0,0,1,.379,1.054,1.723,1.723,0,0,1-.495,1.2,3.131,3.131,0,0,1-1.262.788,4.724,4.724,0,0,1-1.682.26,9.477,9.477,0,0,1-1.733-.215,12.437,12.437,0,0,1-1.842-.554,11.346,11.346,0,0,1-1.693-.824,6.06,6.06,0,0,1-1.3-1.034l-2.319,3.312a10.979,10.979,0,0,0,2.126,1.727,9.922,9.922,0,0,0,2.2,1.022,11.949,11.949,0,0,0,2.235.481,18.536,18.536,0,0,0,2.255.121,11.9,11.9,0,0,0,3.581-.5,7.382,7.382,0,0,0,2.557-1.339,5.517,5.517,0,0,0,2.055-4.327,5.934,5.934,0,0,0-.5-2.519A4.674,4.674,0,0,0,110.585,74.542Zm-35.418,0a6.635,6.635,0,0,0-1.893-1.028,12.139,12.139,0,0,0-2.2-.546c-0.76-.114-1.5-0.2-2.227-0.234a6.262,6.262,0,0,1-2.692-.628,1.576,1.576,0,0,1-.865-1.428,1.525,1.525,0,0,1,.9-1.377,5.5,5.5,0,0,1,2.582-.489,7.762,7.762,0,0,1,2.532.368,5.941,5.941,0,0,1,2.182,1.307l2.629-3.046a9.939,9.939,0,0,0-2.242-1.485,9.357,9.357,0,0,0-2.421-.774,15.793,15.793,0,0,0-2.757-.216,12.876,12.876,0,0,0-2.17.191,11.016,11.016,0,0,0-2.165.621,7.246,7.246,0,0,0-1.873,1.111,4.921,4.921,0,0,0-1.829,3.941,5.023,5.023,0,0,0,.475,2.215,4.75,4.75,0,0,0,1.262,1.6,7.146,7.146,0,0,0,1.817,1.072,11.724,11.724,0,0,0,2.126.641,17.779,17.779,0,0,0,2.2.3,11.487,11.487,0,0,1,2.184.291,2.541,2.541,0,0,1,1.223.635,1.441,1.441,0,0,1,.38,1.054,1.726,1.726,0,0,1-.5,1.2,3.111,3.111,0,0,1-1.262.788,4.722,4.722,0,0,1-1.682.26,9.483,9.483,0,0,1-1.732-.215,12.362,12.362,0,0,1-1.841-.554,11.219,11.219,0,0,1-1.7-.824,6.059,6.059,0,0,1-1.3-1.034L60,81.568a10.948,10.948,0,0,0,2.125,1.727,9.912,9.912,0,0,0,2.2,1.022,11.9,11.9,0,0,0,2.234.481,18.509,18.509,0,0,0,2.254.121,11.9,11.9,0,0,0,3.581-.5,7.388,7.388,0,0,0,2.557-1.339A5.514,5.514,0,0,0,77,78.751a5.9,5.9,0,0,0-.5-2.519A4.656,4.656,0,0,0,75.167,74.542Zm49.375,5.771a4.034,4.034,0,0,1-.5.032,2.731,2.731,0,0,1-1.307-.3,2.107,2.107,0,0,1-.873-0.9,3.209,3.209,0,0,1-.318-1.5V69.465h3.02a10.586,10.586,0,0,1,2.515-3.542q0.282-.258.579-0.494h-6.075V60.046l-4.76.5v4.882h-3.589v4.036h3.589v8.188a8.242,8.242,0,0,0,.865,3.928,5.328,5.328,0,0,0,2.393,2.32,7.627,7.627,0,0,0,3.648.673,12.252,12.252,0,0,0,1.359-.111,9.637,9.637,0,0,0,1.274-.255c0.238-.066.481-0.142,0.73-0.228l-0.128-.122A10.55,10.55,0,0,1,124.542,80.313Zm54.246-15.692c-0.164,0-.324-0.021-0.486-0.018a10.823,10.823,0,0,0-3.795.666,9.248,9.248,0,0,0-3.094,1.916,8.677,8.677,0,0,0-2.093,3.029,10.258,10.258,0,0,0-.769,4,10.455,10.455,0,0,0,1.2,5.1,8.071,8.071,0,0,0,3.356,3.279,11.15,11.15,0,0,0,5.2,1.152,7.129,7.129,0,0,1,1.768.224,5.2,5.2,0,0,1,1.56.7,3.5,3.5,0,0,1,1.118,1.185,3.37,3.37,0,0,1,.429,1.7,3.784,3.784,0,0,1-.656,2.217,4.008,4.008,0,0,1-1.742,1.382,6.165,6.165,0,0,1-2.477.475,6.389,6.389,0,0,1-1.937-.288,5.181,5.181,0,0,1-1.605-.827,3.9,3.9,0,0,1-1.086-1.285,3.57,3.57,0,0,1-.4-1.674h-4.72a8.179,8.179,0,0,0,.742,3.478,7.65,7.65,0,0,0,2.04,2.664,9.331,9.331,0,0,0,3.095,1.71,12.84,12.84,0,0,0,7.735.012,8.9,8.9,0,0,0,3.049-1.677,7.571,7.571,0,0,0,2-2.657,8.519,8.519,0,0,0,.722-3.53,7.9,7.9,0,0,0-.317-2.35,5.705,5.705,0,0,0-1.21-2.125,7.844,7.844,0,0,0-2.452-1.789,6.278,6.278,0,0,0,1.97-1.377,6.817,6.817,0,0,0,1.242-1.813,8.54,8.54,0,0,0,.657-1.985,9.483,9.483,0,0,0,.188-1.9,8.961,8.961,0,0,0-.454-2.966,10.624,10.624,0,0,0-1.163-2.381h1.758V64.6h-9.366v0.02Zm3.036,5.7a4.914,4.914,0,0,1,1.073,1.677,6.094,6.094,0,0,1,.4,2.217,6,6,0,0,1-.4,2.2,4.818,4.818,0,0,1-1.073,1.653,4.686,4.686,0,0,1-1.59,1.044,5.1,5.1,0,0,1-1.932.365,5.356,5.356,0,0,1-1.956-.359,4.649,4.649,0,0,1-2.679-2.69,6.056,6.056,0,0,1-.4-2.215,6.186,6.186,0,0,1,.4-2.23,4.958,4.958,0,0,1,1.081-1.684,4.708,4.708,0,0,1,1.6-1.056,5.261,5.261,0,0,1,3.888,0A4.767,4.767,0,0,1,181.824,70.317ZM141.74,68a5.307,5.307,0,0,0-1.5-1.634,7.272,7.272,0,0,0-2.133-1.064,8.271,8.271,0,0,0-2.49-.377,11.886,11.886,0,0,0-3.935.614A8.978,8.978,0,0,0,128.5,67.42a8.589,8.589,0,0,0-2.133,3.114,11.475,11.475,0,0,0-.775,4.312,12.085,12.085,0,0,0,.748,4.382,8.485,8.485,0,0,0,5.209,5.069,11.668,11.668,0,0,0,3.953.62,8.56,8.56,0,0,0,1.731-.222,9.022,9.022,0,0,0,1.788-.629,7.158,7.158,0,0,0,1.592-1.032,4.74,4.74,0,0,0,1.132-1.46l0.233,2.768h4.488V65.39H141.9Zm-0.429,8.97a5.614,5.614,0,0,1-1.054,1.845,5.067,5.067,0,0,1-1.756,1.3,6.039,6.039,0,0,1-2.457.493,6.3,6.3,0,0,1-2.224-.392,5.4,5.4,0,0,1-1.808-1.132,5.187,5.187,0,0,1-1.216-1.814,6.789,6.789,0,0,1,0-4.851,5.117,5.117,0,0,1,1.216-1.8A5.387,5.387,0,0,1,133.82,69.5a6.334,6.334,0,0,1,2.224-.384,5.965,5.965,0,0,1,2.457.494,5.031,5.031,0,0,1,1.756,1.3,5.547,5.547,0,0,1,1.054,1.844A6.508,6.508,0,0,1,141.311,76.974ZM164.976,67.5a7.481,7.481,0,0,0-2.588-1.8,8.222,8.222,0,0,0-3.185-.615,7.794,7.794,0,0,0-3.338.717,10.893,10.893,0,0,0-2.984,2.128l-0.311-2.576h-4.253V84.343h4.72V74.654a5.89,5.89,0,0,1,.358-2.043,5.144,5.144,0,0,1,1-1.693,4.7,4.7,0,0,1,1.555-1.146,4.846,4.846,0,0,1,2-.423,4.7,4.7,0,0,1,2.557.673,4.173,4.173,0,0,1,1.559,1.807,6.083,6.083,0,0,1,.527,2.6v9.919h4.76V74.385a11.737,11.737,0,0,0-.638-3.967A8.4,8.4,0,0,0,164.976,67.5Zm43.313,3.557a9.4,9.4,0,0,0-2.029-3.141,9.282,9.282,0,0,0-3.174-2.127,10.861,10.861,0,0,0-4.154-.781,10.723,10.723,0,0,0-4.135.781,9.091,9.091,0,0,0-3.135,2.127,9.276,9.276,0,0,0-1.982,3.141,10.64,10.64,0,0,0-.7,3.83,11.016,11.016,0,0,0,.682,3.844,9.316,9.316,0,0,0,1.971,3.139,9.129,9.129,0,0,0,3.141,2.12,11.755,11.755,0,0,0,8.4,0,9.109,9.109,0,0,0,5.136-5.26,10.686,10.686,0,0,0,.69-3.844A10.54,10.54,0,0,0,208.289,71.055Zm-4.416,5.92a5.383,5.383,0,0,1-.989,1.781,4.668,4.668,0,0,1-1.63,1.236,5.811,5.811,0,0,1-4.565,0,4.657,4.657,0,0,1-1.632-1.236,5.532,5.532,0,0,1-.99-1.781,6.865,6.865,0,0,1-.323-2.089,6.6,6.6,0,0,1,.33-2.075,5.626,5.626,0,0,1,.995-1.8,4.846,4.846,0,0,1,1.639-1.262,5.322,5.322,0,0,1,2.262-.474,5.054,5.054,0,0,1,2.166.474,5.155,5.155,0,0,1,1.652,1.262,5.876,5.876,0,0,1,1.046,1.8,6.058,6.058,0,0,1,.366,2.075A6.777,6.777,0,0,1,203.873,76.974Z" transform="translate(-60 -60)"/>
</svg>
